<svg width="220" height="226" viewBox="0 0 220 226" fill="none" xmlns="http://www.w3.org/2000/svg">
<g filter="url(#filter0_f_1682_24921)">
<ellipse cx="109.877" cy="186.887" rx="72.6551" ry="16.8874" fill="#D0DBEC" fill-opacity="0.5"/>
</g>
<path d="M110.82 194.22C160.577 194.22 200.914 153.884 200.914 104.127C200.914 54.3702 160.577 14.0342 110.82 14.0342C61.0634 14.0342 20.7273 54.3702 20.7273 104.127C20.7273 153.884 61.0634 194.22 110.82 194.22Z" fill="url(#paint0_linear_1682_24921)"/>
<path d="M220 53.1187C220.002 55.5144 219.136 57.8293 217.564 59.6317C215.991 61.4341 213.819 62.601 211.452 62.9149C211.019 62.9702 210.584 62.9987 210.147 63H177.393C176.682 62.9984 175.973 62.9397 175.272 62.8244C172.261 62.3031 169.549 60.6826 167.657 58.275C165.765 55.8673 164.828 52.8427 165.026 49.7832C165.223 46.7236 166.541 43.8456 168.727 41.7029C170.912 39.5602 173.81 38.3044 176.863 38.1771C178.445 34.7298 181.101 31.8922 184.431 30.0923C187.761 28.2925 191.584 27.6281 195.323 28.1993C199.062 28.7705 202.515 30.5463 205.16 33.259C207.806 35.9716 209.5 39.4738 209.988 43.2375H210.137C211.431 43.2354 212.713 43.4894 213.91 43.9851C215.107 44.4807 216.194 45.2082 217.11 46.126C218.026 47.0438 218.753 48.1338 219.249 49.3337C219.745 50.5335 220 51.8198 220 53.1187Z" fill="url(#paint1_linear_1682_24921)"/>
<path d="M26.9998 35.772C26.9998 37.4237 27.662 39.0079 28.8407 40.1758C30.0195 41.3438 31.6182 42 33.2853 42H54.1532C56.2092 41.9892 58.1798 41.1834 59.6451 39.7542C61.1105 38.325 61.9547 36.3854 61.998 34.3486C62.0413 32.3117 61.2803 30.3386 59.877 28.8495C58.4738 27.3604 56.5392 26.4731 54.4854 26.3765C53.4725 24.2147 51.7792 22.4367 49.6597 21.3095C47.5402 20.1824 45.1089 19.7668 42.7308 20.1253C40.3527 20.4838 38.1561 21.5969 36.4708 23.2976C34.7854 24.9983 33.7023 27.1947 33.384 29.5573H33.2898C31.6243 29.5561 30.0264 30.2099 28.8471 31.3751C27.6677 32.5403 27.0033 34.1217 26.9998 35.772Z" fill="url(#paint2_linear_1682_24921)"/>
<path d="M-0.00023144 164.119C-0.00138883 166.514 0.848506 168.827 2.39109 170.628C3.93368 172.43 6.06375 173.596 8.38439 173.909C8.80649 173.969 9.23212 174 9.65827 174H41.7663C42.4659 173.999 43.1643 173.94 43.8546 173.824C46.8231 173.318 49.5022 171.703 51.3721 169.29C53.242 166.878 54.1693 163.841 53.9742 160.769C53.7791 157.697 52.4754 154.808 50.3161 152.664C48.1568 150.519 45.2958 149.272 42.2884 149.164C40.7352 145.72 38.1303 142.886 34.866 141.089C31.6017 139.292 27.8548 138.629 24.19 139.199C20.5252 139.77 17.141 141.544 14.5473 144.253C11.9536 146.963 10.2909 150.461 9.80968 154.222H9.65827C8.38858 154.222 7.13135 154.478 5.9585 154.975C4.78566 155.473 3.72022 156.202 2.82314 157.121C1.92606 158.041 1.21494 159.132 0.730478 160.333C0.246015 161.533 -0.0022904 162.82 -0.00023144 164.119Z" fill="url(#paint3_linear_1682_24921)"/>
<path d="M182.309 84.8197C181.995 83.5849 183.135 82.4725 184.361 82.8172L189.681 84.312C190.907 84.6568 191.301 86.2001 190.389 87.0901L186.435 90.9495C185.523 91.8395 183.989 91.4086 183.675 90.1739L182.309 84.8197Z" fill="#A9BCDC"/>
<path d="M32.1444 84.8197C31.8296 83.5849 32.9695 82.4725 34.1962 82.8172L39.5156 84.312C40.7423 84.6568 41.1358 86.2001 40.2239 87.0901L36.2696 90.9495C35.3578 91.8395 33.8244 91.4086 33.5096 90.1739L32.1444 84.8197Z" fill="#A9BCDC"/>
<path d="M82.0582 8.14222C82.5475 6.11529 85.4305 6.11528 85.9198 8.14222L86.738 11.5314C86.9128 12.2557 87.4784 12.8213 88.2027 12.9961L91.5919 13.8143C93.6188 14.3036 93.6188 17.1867 91.5919 17.6759L88.2027 18.4941C87.4784 18.6689 86.9128 19.2345 86.738 19.9588L85.9198 23.348C85.4306 25.3749 82.5475 25.3749 82.0582 23.348L81.24 19.9588C81.0652 19.2345 80.4996 18.6689 79.7753 18.4941L76.3861 17.6759C74.3592 17.1867 74.3592 14.3036 76.3861 13.8143L79.7753 12.9961C80.4996 12.8213 81.0652 12.2557 81.24 11.5314L82.0582 8.14222Z" fill="#DCE8FF"/>
<path d="M117.202 178.261C117.202 180.089 115.721 181.57 113.893 181.57C112.065 181.57 110.584 180.089 110.584 178.261C110.584 176.434 112.065 174.952 113.893 174.952C115.721 174.952 117.202 176.434 117.202 178.261Z" stroke="#A9BCDC" stroke-width="2.48287"/>
<path d="M181.069 153.999C181.558 151.972 184.441 151.972 184.931 153.999L185.048 154.487C185.223 155.211 185.789 155.777 186.513 155.951L187.001 156.069C189.028 156.558 189.028 159.442 187.001 159.931L186.513 160.049C185.789 160.223 185.223 160.789 185.048 161.513L184.931 162.001C184.441 164.028 181.558 164.028 181.069 162.001L180.951 161.513C180.776 160.789 180.211 160.223 179.486 160.049L178.998 159.931C176.971 159.442 176.971 156.558 178.998 156.069L179.486 155.951C180.211 155.777 180.776 155.211 180.951 154.487L181.069 153.999Z" fill="#DCE8FF"/>
<circle cx="187.351" cy="126.257" r="3.30902" stroke="#A9BCDC" stroke-width="2.48287"/>
<g filter="url(#filter1_f_1682_24921)">
<ellipse cx="112" cy="150.413" rx="34.7261" ry="7.5766" fill="#7CA1FF" fill-opacity="0.5"/>
</g>
<g clip-path="url(#clip0_1682_24921)">
<path fill-rule="evenodd" clip-rule="evenodd" d="M121.484 62.7088C122.95 54.8284 124.505 51.0566 126.861 51.0566H126.958C129.349 51.1639 130.805 58.2343 131.68 68.0323C132.228 74.1854 132.321 79.2552 132.311 82.1341C133.289 83.4267 134.121 84.8224 134.794 86.2963C135.04 85.8845 135.179 85.4185 135.2 84.9398C135.335 79.2107 135.131 73.4787 134.589 67.7737C133.313 53.6427 131.28 48.3192 127.066 48.1289H126.836C121.621 48.1289 119.924 55.0724 118.6 62.1818C117.674 66.8592 116.366 71.4531 114.689 75.9176C115.765 75.9615 116.786 76.0152 117.749 76.0933C119.345 71.7368 120.593 67.2614 121.484 62.7088ZM93.8507 51.4812C91.4653 51.6422 90.1895 58.7419 89.5638 68.5594C89.2633 73.0193 89.198 77.4918 89.3683 81.9585C88.3173 83.1168 87.4157 84.402 86.6847 85.784V85.6376C86.2514 79.8867 86.24 74.1119 86.6505 68.3594C87.5548 54.204 89.4563 48.8316 93.6601 48.5389H94.0169C99.1299 48.5389 100.992 55.3799 102.439 62.4015C103.485 67.0044 104.945 71.5038 106.801 75.8447H106.834C107.254 76.845 107.538 77.4598 107.538 77.4598C107.653 77.6867 107.737 77.9269 107.789 78.1742C107.745 77.9279 107.668 77.6876 107.561 77.4597C107.559 77.4557 107.55 77.4363 107.535 77.4023L107.535 77.4021C107.457 77.2293 107.208 76.6798 106.857 75.8446C109.751 75.8153 112.351 75.8299 114.678 75.9178C114.326 76.8595 114.091 77.4353 114.091 77.4353C114.066 77.5021 114.042 77.5697 114.022 77.638C114.043 77.5731 114.066 77.5088 114.092 77.4453C114.102 77.4257 114.327 76.8695 114.679 75.9277C115.754 75.9716 116.761 76.0253 117.739 76.1034C117.186 77.6209 116.81 78.5431 116.81 78.5431C116.885 78.6897 116.974 78.8291 117.075 78.9593L117.122 78.9628C117.465 79.4159 117.908 79.7838 118.417 80.0377C118.925 80.2917 119.486 80.4248 120.055 80.4266C120.292 80.4255 120.529 80.406 120.764 80.3681C121.404 80.269 121.948 80.1407 122.447 80.0227L122.447 80.0227L122.447 80.0227L122.448 80.0226L122.448 80.0226C122.707 79.9613 122.955 79.903 123.198 79.8529L123.188 79.8506C123.621 79.7536 124.063 79.7013 124.507 79.6945C125.426 79.6945 126.394 79.9775 127.689 80.8607C129.366 81.9866 130.895 83.3176 132.24 84.8228C132.24 84.8228 132.284 83.8518 132.284 82.1342C133.262 83.4269 134.095 84.8226 134.767 86.2964C134.415 86.9015 133.856 87.3602 133.194 87.5895C132.881 87.6931 132.555 87.7459 132.226 87.7457H132.191L132.179 87.7198C131.783 87.7058 131.394 87.6119 131.035 87.4433C130.653 87.264 130.314 87.0043 130.041 86.6821C128.864 85.3874 127.532 84.2404 126.077 83.2665C125.119 82.6126 124.723 82.6126 124.552 82.6126C124.067 82.6496 123.588 82.7346 123.12 82.8664C122.582 82.9932 121.976 83.1348 121.262 83.247C120.874 83.3106 120.482 83.3432 120.089 83.3446C118.888 83.3443 117.709 83.0205 116.677 82.4073C115.644 81.7941 114.797 80.9143 114.223 79.8606C114.06 79.5376 113.958 79.1871 113.922 78.8271L113.892 78.8262L113.891 78.8157C112.07 78.7803 110.057 78.7626 107.851 78.7625L107.851 78.7968H107.795C107.781 79.1942 107.685 79.5845 107.513 79.9435C106.953 81.0366 106.102 81.9542 105.053 82.5948C104.004 83.2354 102.798 83.5743 101.569 83.5739C101.242 83.5744 100.915 83.5516 100.591 83.5056C99.8724 83.4128 99.2614 83.286 98.7237 83.1737C98.2653 83.0588 97.7974 82.9853 97.3257 82.9542C97.1351 82.9542 96.7538 82.9542 95.7762 83.6471C94.35 84.6617 93.0503 85.8428 91.9048 87.1652C91.6282 87.5086 91.2775 87.7852 90.8788 87.9745C90.4802 88.1637 90.0439 88.2607 89.6025 88.2582C89.3214 88.2579 89.0417 88.2185 88.7715 88.1411L88.7716 88.1408C88.2397 87.9792 87.7648 87.67 87.4021 87.2493C87.0395 86.8286 86.8042 86.3136 86.7235 85.7645C87.4545 84.3824 88.3561 83.0972 89.4071 81.9389C89.5 84.1201 89.6173 85.3546 89.6173 85.3546C90.931 83.8176 92.4318 82.4506 94.0851 81.2851C95.3951 80.3336 96.3727 80.0408 97.3503 80.0408H97.4383L97.4361 80.0416C98.0429 80.0554 98.6396 80.1789 99.313 80.3183L99.3131 80.3183L99.3131 80.3183L99.3132 80.3184C99.8136 80.4219 100.356 80.5343 100.977 80.6169C101.178 80.6413 101.381 80.6543 101.583 80.6559C102.237 80.6593 102.881 80.4901 103.448 80.1653C104.016 79.8406 104.487 79.3718 104.814 78.8066L105.001 78.7968H104.839C104.863 78.7609 104.884 78.7234 104.903 78.6846C104.903 78.6846 104.422 77.6426 103.727 75.9401L103.695 75.9421C101.959 71.7524 100.587 67.4214 99.5943 62.9968C97.9616 55.2189 96.3094 51.4812 94.0022 51.4812H93.8507ZM93.6969 81.9992L93.6402 82.0414C93.2769 82.3171 92.9265 82.6076 92.5897 82.9121C92.9264 82.6077 93.2768 82.3173 93.6401 82.0417L93.6969 81.9992ZM77.8855 120.833C78.3451 120.56 78.8698 120.415 79.4046 120.414H79.4437C79.9343 120.418 80.4159 120.545 80.8445 120.783L80.8427 120.795C81.4601 121.134 81.9357 121.682 82.184 122.341C82.4322 122.999 82.4367 123.725 82.1967 124.386C81.6569 124.444 81.1255 124.563 80.613 124.742C79.7375 125.049 78.9293 125.521 78.2325 126.133C78.0949 126.071 77.9611 126.001 77.8316 125.923C77.3952 125.654 77.0357 125.277 76.7882 124.828C76.5407 124.38 76.4135 123.875 76.4189 123.363C76.4243 122.851 76.5621 122.349 76.8191 121.906C77.076 121.463 77.4433 121.093 77.8854 120.834L77.8855 120.833ZM78.4605 117.573L78.4612 117.569C78.773 117.517 79.0884 117.489 79.4046 117.486H79.4828C80.1365 117.497 80.784 117.616 81.399 117.838L81.3972 117.847C82.7519 118.325 83.8837 119.283 84.5777 120.54C85.2737 121.8 85.4806 123.271 85.1589 124.674C86.2688 125.034 87.2749 125.657 88.0918 126.489L88.1211 126.494C89.1045 127.504 89.7681 128.78 90.0292 130.164C90.0419 130.231 90.0536 130.298 90.0644 130.366C90.617 130.236 91.1859 130.164 91.7622 130.153H91.8649C92.9159 130.161 93.9551 130.376 94.9225 130.786C95.7122 131.121 96.4413 131.581 97.0822 132.147C97.7756 130.95 98.6238 129.835 99.614 128.834C101.128 127.304 102.93 126.087 104.916 125.251C106.902 124.416 109.033 123.979 111.188 123.966H111.398L111.413 123.956C115.724 123.974 119.857 125.678 122.925 128.703C123.696 129.464 124.385 130.294 124.985 131.178C125.067 131.087 125.15 130.997 125.236 130.909C125.971 130.157 126.847 129.557 127.814 129.144C128.781 128.73 129.821 128.511 130.873 128.499H130.975H130.98C131.609 128.501 132.23 128.577 132.832 128.722C133.059 127.279 133.725 125.929 134.753 124.864C135.544 124.043 136.512 123.431 137.571 123.064C137.543 122.941 137.518 122.816 137.498 122.69C137.274 121.305 137.552 119.886 138.282 118.688C139.011 117.489 140.145 116.589 141.479 116.149C142.054 115.956 142.656 115.854 143.263 115.847H143.341C143.707 115.847 144.072 115.883 144.431 115.954V115.939C145.889 116.193 147.197 116.983 148.099 118.153C149.001 119.324 149.431 120.789 149.303 122.26C149.175 123.731 148.5 125.101 147.41 126.099C147.044 126.433 146.642 126.717 146.212 126.948C146.604 127.836 146.815 128.802 146.821 129.791C146.832 131.659 146.112 133.458 144.814 134.804C143.516 136.149 141.742 136.935 139.871 136.994H139.783C139.511 136.989 139.242 136.968 138.975 136.933C138.866 138.858 138.064 140.686 136.707 142.075C135.223 143.593 133.197 144.461 131.073 144.489H130.97C129.748 144.485 128.554 144.202 127.475 143.677C126.844 146.71 125.358 149.528 123.157 151.781C120.118 154.893 115.966 156.672 111.613 156.727H111.388C107.036 156.753 102.852 155.053 99.7557 152C97.8123 150.084 96.3976 147.733 95.607 145.174C94.4318 145.811 93.1119 146.146 91.7671 146.143H91.6645C89.5738 146.081 87.5906 145.204 86.1385 143.701C84.8021 142.318 84.0132 140.505 83.906 138.598C83.6013 138.638 83.2933 138.658 82.9837 138.658H82.8908C81.6946 138.645 80.5207 138.333 79.4766 137.75C78.4325 137.167 77.5514 136.332 76.914 135.322C76.2765 134.311 75.903 133.157 75.8277 131.965C75.7523 130.774 75.9774 129.582 76.4825 128.499C75.4245 127.893 74.5808 126.974 74.0673 125.869C73.5538 124.764 73.3958 123.528 73.615 122.33C73.8341 121.131 74.4197 120.03 75.2912 119.178C76.1575 118.331 77.2642 117.77 78.4605 117.573ZM95.7305 135.136C95.1607 136.832 94.8675 138.624 94.8786 140.446C94.8818 140.963 94.9094 141.477 94.9608 141.987C94.074 142.75 92.9462 143.187 91.7671 143.216H91.6987C90.3793 143.167 89.1306 142.608 88.2173 141.656C87.304 140.705 86.7978 139.435 86.8061 138.118C86.8073 137.919 86.8202 137.722 86.8443 137.527C86.879 137.505 86.9135 137.483 86.9479 137.46C88.1226 136.68 89.0413 135.573 89.5893 134.275C89.6969 134.02 89.7892 133.761 89.8662 133.497C90.4601 133.24 91.1031 133.097 91.7622 133.081H91.8306C93.15 133.129 94.3987 133.689 95.312 134.64C95.4628 134.797 95.6024 134.963 95.7305 135.136ZM98.1088 143.053C98.6412 145.64 99.9295 148.034 101.839 149.918C104.382 152.425 107.819 153.821 111.393 153.799H111.564C115.097 153.714 118.454 152.248 120.915 149.716C123.105 147.463 124.428 144.525 124.677 141.42C123.599 140.048 122.992 138.355 122.964 136.594C122.953 135.811 123.058 135.032 123.274 134.282C122.64 133.028 121.808 131.87 120.798 130.857C118.307 128.355 114.931 126.931 111.398 126.889V126.894H111.227C107.653 126.916 104.234 128.354 101.722 130.893C100.598 132.029 99.6963 133.344 99.0456 134.77C99.323 135.364 99.5274 135.994 99.6521 136.645C99.9485 138.194 99.7798 139.795 99.1671 141.248C98.8935 141.897 98.5369 142.503 98.1088 143.053ZM127.819 140.368C128.699 141.11 129.81 141.533 130.97 141.561H131.034C132.353 141.514 133.602 140.955 134.516 140.004C135.429 139.052 135.936 137.783 135.929 136.466C135.927 136.224 135.908 135.984 135.873 135.747C135.495 135.489 135.14 135.194 134.814 134.864C133.994 134.035 133.396 133.026 133.06 131.93C132.415 131.619 131.705 131.445 130.975 131.427H130.907C129.587 131.475 128.339 132.034 127.425 132.986C127.088 133.337 126.807 133.732 126.586 134.156C127.359 136.038 127.784 138.064 127.817 140.137C127.818 140.214 127.819 140.291 127.819 140.368ZM86.3545 128.954C86.9448 129.738 87.2424 130.701 87.2007 131.676C86.8489 131.931 86.5163 132.215 86.2069 132.528C85.3675 133.375 84.7368 134.391 84.3476 135.495C83.9001 135.649 83.4261 135.728 82.9446 135.726H82.9006C81.7757 135.71 80.7029 135.25 79.9175 134.446C79.1322 133.642 78.6984 132.56 78.7115 131.437C78.7409 130.676 78.961 129.934 79.3518 129.28H79.4105C79.972 129.277 80.5301 129.193 81.0676 129.031C82.0984 128.718 83.0255 128.133 83.7512 127.338C84.7905 127.534 85.7191 128.11 86.3545 128.954ZM137.955 92.3966C137.842 92.4714 137.741 92.5611 137.653 92.6629L137.562 92.4742L137.562 92.474L137.561 92.4737C137.223 91.7727 136.893 91.0901 136.547 90.2824C135.902 88.76 135.325 87.4523 134.768 86.3008C134.415 86.9058 133.857 87.3645 133.194 87.5938C132.888 87.6954 132.568 87.7481 132.246 87.75H132.212C132.7 88.7796 133.233 89.9848 133.849 91.4242C134.265 92.4001 134.661 93.2199 135.047 94.0055C136.616 97.2357 138.234 100.578 141.48 116.129C142.055 115.936 142.657 115.834 143.264 115.827L143.342 115.822C143.708 115.823 144.073 115.859 144.432 115.929C143.165 109.83 142.133 105.522 141.25 102.339C141.567 102.265 141.851 102.087 142.056 101.833C142.272 101.565 142.387 101.23 142.381 100.886V99.564C142.376 98.8614 141.867 97.056 141.437 95.6604C141.417 95.5894 141.389 95.5207 141.354 95.4555C141.119 94.7773 140.416 92.8987 139.477 92.3375C139.242 92.2073 138.976 92.144 138.708 92.1544C138.44 92.1649 138.179 92.2486 137.955 92.3966ZM80.1936 103.467C80.3809 103.552 80.5843 103.595 80.79 103.594C80.9734 103.592 81.1545 103.556 81.3239 103.488C80.47 107.45 79.5435 112.088 78.4525 117.559C78.7643 117.507 79.0798 117.479 79.3959 117.476H79.4741C80.1279 117.488 80.7753 117.606 81.3903 117.828C84.592 101.75 86.2784 93.3376 88.7714 88.1605C88.2376 88.0005 87.7606 87.692 87.3961 87.2712C87.0317 86.8503 86.7949 86.3345 86.7135 85.7842C85.6045 87.8446 84.6598 90.3506 83.7398 93.5422C83.5767 93.4734 83.4016 93.4343 83.223 93.4277C82.9483 93.4175 82.6763 93.4846 82.438 93.6213C82.1996 93.758 82.0046 93.9589 81.8751 94.2009L81.859 94.2312C81.6521 94.6212 80.8295 96.1714 80.5016 97.0017C80.4556 97.0987 80.4196 97.2001 80.394 97.3043V97.3677C80.3598 97.4214 80.3598 97.4751 80.3598 97.519L79.3528 101.803C79.2776 102.135 79.3203 102.482 79.4737 102.786C79.6271 103.09 79.8817 103.33 80.1936 103.467ZM138.526 133.841C138.125 132.71 137.47 131.673 136.599 130.814C136.305 130.523 135.99 130.258 135.659 130.019C135.657 129.966 135.655 129.913 135.655 129.86C135.648 128.761 136.069 127.702 136.829 126.908C137.406 126.305 138.144 125.889 138.947 125.705C139.119 125.895 139.305 126.075 139.502 126.243C140.564 127.145 141.91 127.643 143.304 127.65C143.694 128.297 143.907 129.041 143.911 129.808C143.918 130.907 143.497 131.965 142.737 132.76C141.977 133.554 140.937 134.023 139.837 134.067H139.783C139.351 134.055 138.928 133.978 138.526 133.841ZM145.401 123.813C145.123 124.106 144.791 124.336 144.427 124.494C143.333 123.518 141.967 122.901 140.515 122.725C140.48 122.622 140.451 122.517 140.427 122.41C140.28 121.749 140.363 121.058 140.663 120.451C140.963 119.844 141.461 119.358 142.075 119.072C142.459 118.89 142.878 118.793 143.302 118.789H143.341C144.111 118.815 144.841 119.138 145.377 119.689C145.914 120.241 146.216 120.978 146.221 121.746C146.225 122.515 145.931 123.256 145.401 123.813Z" fill="#B9CCF3"/>
<path d="M111.531 151.708L112.195 151.681L112.063 148.497L111.399 148.525L111.531 151.708Z" fill="#B9CCF3"/>
<path d="M109 151.453L109.653 151.574L110.234 148.441L109.581 148.32L109 151.453Z" fill="#B9CCF3"/>
<path d="M106.59 150.641L107.2 150.904L108.465 147.979L107.855 147.716L106.59 150.641Z" fill="#B9CCF3"/>
<path d="M104.402 149.31L104.939 149.702L106.824 147.131L106.287 146.739L104.402 149.31Z" fill="#B9CCF3"/>
<path d="M102.581 147.537L103.017 148.038L105.428 145.95L104.993 145.449L102.581 147.537Z" fill="#B9CCF3"/>
<path d="M101.204 145.401L101.517 145.986L104.333 144.487L104.021 143.901L101.204 145.401Z" fill="#B9CCF3"/>
<path d="M100.337 143.015L100.511 143.655L103.591 142.819L103.417 142.178L100.337 143.015Z" fill="#B9CCF3"/>
<path d="M100.015 140.481L100.042 141.144L103.232 141.012L103.204 140.349L100.015 140.481Z" fill="#B9CCF3"/>
<path d="M99.9158 137.86L99.7961 138.511L102.924 139.084L103.044 138.434L99.9158 137.86Z" fill="#B9CCF3"/>
<path d="M101.082 135.544L100.818 136.153L103.749 137.416L104.012 136.807L101.082 135.544Z" fill="#B9CCF3"/>
<path d="M102.655 133.216L102.262 133.754L104.848 135.634L105.24 135.096L102.655 133.216Z" fill="#B9CCF3"/>
<path d="M104.188 131.544L103.686 131.979L105.778 134.385L106.28 133.951L104.188 131.544Z" fill="#B9CCF3"/>
<path d="M106.332 130.165L105.746 130.478L107.248 133.289L107.835 132.976L106.332 130.165Z" fill="#B9CCF3"/>
<path d="M108.723 129.301L108.082 129.476L108.92 132.55L109.561 132.376L108.723 129.301Z" fill="#B9CCF3"/>
<path d="M111.26 128.98L110.596 129.008L110.728 132.191L111.392 132.164L111.26 128.98Z" fill="#B9CCF3"/>
<path d="M113.794 129.237L113.141 129.116L112.56 132.249L113.213 132.37L113.794 129.237Z" fill="#B9CCF3"/>
<path d="M116.205 130.049L115.595 129.786L114.33 132.711L114.94 132.975L116.205 130.049Z" fill="#B9CCF3"/>
<path d="M118.396 131.376L117.86 130.984L115.975 133.556L116.511 133.948L118.396 131.376Z" fill="#B9CCF3"/>
<path d="M120.215 133.154L119.78 132.652L117.368 134.74L117.804 135.242L120.215 133.154Z" fill="#B9CCF3"/>
<path d="M121.591 135.29L121.278 134.704L118.462 136.204L118.775 136.789L121.591 135.29Z" fill="#B9CCF3"/>
<path d="M122.455 137.675L122.281 137.035L119.201 137.872L119.375 138.512L122.455 137.675Z" fill="#B9CCF3"/>
<path d="M122.778 140.216L122.751 139.553L119.562 139.684L119.589 140.348L122.778 140.216Z" fill="#B9CCF3"/>
<path d="M122.523 142.74L122.644 142.088L119.505 141.508L119.384 142.16L122.523 142.74Z" fill="#B9CCF3"/>
<path d="M121.717 145.145L121.98 144.536L119.05 143.273L118.786 143.883L121.717 145.145Z" fill="#B9CCF3"/>
<path d="M120.381 147.329L120.773 146.794L118.198 144.912L117.805 145.448L120.381 147.329Z" fill="#B9CCF3"/>
<path d="M118.604 149.142L119.106 148.707L117.014 146.3L116.512 146.735L118.604 149.142Z" fill="#B9CCF3"/>
<path d="M116.461 150.521L117.047 150.209L115.545 147.398L114.958 147.71L116.461 150.521Z" fill="#B9CCF3"/>
<path d="M114.073 151.388L114.715 151.214L113.877 148.139L113.236 148.314L114.073 151.388Z" fill="#B9CCF3"/>
<path fill-rule="evenodd" clip-rule="evenodd" d="M104.481 97.6119C104.31 96.2603 105.899 94.3232 110.073 94.2744H110.411C114.321 94.2744 116.135 95.1722 116.531 96.9044C116.765 97.9332 116.146 99.342 114.974 100.444C114.973 100.443 114.972 100.442 114.972 100.441C114.235 101.137 113.339 101.642 112.361 101.91C113.002 102.632 113.784 103.525 114.424 104.267C115.329 103.863 116.163 103.317 116.895 102.649C116.895 102.65 116.895 102.65 116.895 102.65C116.163 103.318 115.329 103.864 114.424 104.268L114.844 104.755C116.11 106.219 116.272 106.917 115.617 107.683C115.481 107.838 115.313 107.961 115.125 108.046C114.937 108.13 114.733 108.173 114.527 108.171C114.401 108.173 114.275 108.155 114.155 108.117L111.447 105.034C111.115 105.063 110.787 105.082 110.469 105.082C110.152 105.082 109.853 105.082 109.555 105.043C109.032 105.751 108.387 106.615 107.962 107.176C107.439 107.864 106.984 108.264 106.495 108.264C106.341 108.254 106.19 108.212 106.053 108.14C105.916 108.069 105.795 107.97 105.699 107.849C105.488 107.659 105.335 107.414 105.259 107.141C105.183 106.867 105.186 106.578 105.268 106.307L106.784 104.445C107.666 104.77 108.589 104.971 109.527 105.043L110.402 103.857L111.433 105.033C111.607 105.033 111.785 105.006 111.96 104.979L111.96 104.979L112.025 104.97C112.848 104.845 113.651 104.609 114.41 104.267C113.77 103.525 112.988 102.632 112.347 101.91C112.107 101.98 111.862 102.034 111.614 102.071C111.225 102.126 110.834 102.153 110.441 102.154C109.883 102.153 109.326 102.094 108.781 101.976L108.783 101.974C107.781 101.775 106.847 101.323 106.07 100.661L104.217 102.94L104.223 102.945L102.991 104.463C102.811 104.687 102.663 104.935 102.551 105.2C102.249 105.995 102.186 106.861 102.368 107.691C102.551 108.522 102.971 109.282 103.577 109.879C103.948 110.289 104.401 110.617 104.905 110.843C105.41 111.069 105.957 111.188 106.51 111.192C108.602 111.192 109.888 109.498 110.308 108.942L110.631 108.518L111.97 110.05C112.307 110.43 112.736 110.717 113.217 110.884C113.646 111.03 114.097 111.103 114.551 111.099C115.169 111.098 115.78 110.964 116.343 110.707C116.905 110.451 117.406 110.077 117.811 109.611C120.36 106.74 117.904 103.846 117.085 102.881L117.078 102.872L116.9 102.65C117.398 102.199 117.845 101.694 118.232 101.145C118.752 100.455 119.123 99.6656 119.322 98.8259C119.522 97.9862 119.545 97.1143 119.39 96.2652C118.271 91.3418 112.356 91.3418 110.411 91.3418H110.034C106.896 91.3808 104.35 92.3421 102.854 94.0597C102.375 94.5822 102.013 95.2006 101.792 95.8737C101.571 96.5468 101.497 97.2591 101.573 97.9633C101.802 99.8879 102.746 101.657 104.218 102.921L106.07 100.642C105.184 99.8621 104.619 98.783 104.481 97.6119ZM115.92 101.523C115.742 101.319 115.561 101.114 115.382 100.911C115.501 101.047 115.622 101.184 115.742 101.32C115.801 101.388 115.861 101.456 115.92 101.523Z" fill="#B9CCF3"/>
<path d="M109.541 105.043C109.839 105.043 110.147 105.082 110.455 105.082C110.763 105.082 111.115 105.082 111.433 105.033L110.401 103.857L109.541 105.043Z" fill="#B9CCF3"/>
</g>
<defs>
<filter id="filter0_f_1682_24921" x="15.4484" y="148.227" width="188.856" height="77.3204" filterUnits="userSpaceOnUse" color-interpolation-filters="sRGB">
<feFlood flood-opacity="0" result="BackgroundImageFix"/>
<feBlend mode="normal" in="SourceGraphic" in2="BackgroundImageFix" result="shape"/>
<feGaussianBlur stdDeviation="10.8865" result="effect1_foregroundBlur_1682_24921"/>
</filter>
<filter id="filter1_f_1682_24921" x="56.5834" y="122.145" width="110.833" height="56.5345" filterUnits="userSpaceOnUse" color-interpolation-filters="sRGB">
<feFlood flood-opacity="0" result="BackgroundImageFix"/>
<feBlend mode="normal" in="SourceGraphic" in2="BackgroundImageFix" result="shape"/>
<feGaussianBlur stdDeviation="10.3453" result="effect1_foregroundBlur_1682_24921"/>
</filter>
<linearGradient id="paint0_linear_1682_24921" x1="110.126" y1="-15.3024" x2="111.971" y2="301.091" gradientUnits="userSpaceOnUse">
<stop stop-color="#E1F2FF" stop-opacity="0"/>
<stop offset="1" stop-color="#E0F4FF"/>
</linearGradient>
<linearGradient id="paint1_linear_1682_24921" x1="209.562" y1="78.0948" x2="182.058" y2="28.0804" gradientUnits="userSpaceOnUse">
<stop stop-color="#BDDFFF"/>
<stop offset="1" stop-color="#F5FAFF"/>
</linearGradient>
<linearGradient id="paint2_linear_1682_24921" x1="55.3578" y1="51.4882" x2="38.184" y2="19.8718" gradientUnits="userSpaceOnUse">
<stop stop-color="#BDDFFF"/>
<stop offset="1" stop-color="#F5FAFF"/>
</linearGradient>
<linearGradient id="paint3_linear_1682_24921" x1="43.7521" y1="189.095" x2="15.9796" y2="139.511" gradientUnits="userSpaceOnUse">
<stop stop-color="#BDDFFF"/>
<stop offset="1" stop-color="#F5FAFF"/>
</linearGradient>
<clipPath id="clip0_1682_24921">
<rect width="75.766" height="108.598" fill="white" transform="translate(73.4861 48.1289)"/>
</clipPath>
</defs>
</svg>
