<svg width="40" height="40" viewBox="0 0 40 40" fill="none" xmlns="http://www.w3.org/2000/svg">
<path d="M31.076 9.99455C29.0493 9.06479 26.855 8.38997 24.5692 8.00007C24.5492 7.99944 24.5292 8.00314 24.5108 8.01091C24.4924 8.01869 24.4759 8.03034 24.4625 8.04506C24.1882 8.53993 23.8682 9.18476 23.6549 9.67963C21.2304 9.31972 18.7648 9.31972 16.3404 9.67963C16.1271 9.16976 15.8071 8.53993 15.5175 8.04506C15.5023 8.01507 15.4566 8.00007 15.4108 8.00007C13.1251 8.38997 10.946 9.06479 8.904 9.99455C8.88876 9.99455 8.87353 10.0095 8.85829 10.0245C4.71341 16.1279 3.57052 22.0664 4.13435 27.9448C4.13435 27.9748 4.14959 28.0048 4.18006 28.0198C6.923 29.9993 9.55926 31.199 12.165 31.9938C12.2108 32.0088 12.2565 31.9938 12.2717 31.9638C12.8813 31.139 13.4298 30.2692 13.9022 29.3545C13.9327 29.2945 13.9022 29.2345 13.8413 29.2195C12.9727 28.8896 12.1498 28.4997 11.3422 28.0498C11.2812 28.0198 11.2812 27.9299 11.3269 27.8849C11.4946 27.7649 11.6622 27.6299 11.8298 27.51C11.8603 27.48 11.906 27.48 11.9365 27.495C17.1785 29.8493 22.832 29.8493 28.0131 27.495C28.0436 27.48 28.0893 27.48 28.1198 27.51C28.2874 27.6449 28.455 27.7649 28.6226 27.8999C28.6836 27.9448 28.6836 28.0348 28.6074 28.0648C27.815 28.5297 26.9769 28.9046 26.1083 29.2345C26.0473 29.2495 26.0321 29.3245 26.0473 29.3695C26.535 30.2842 27.0836 31.154 27.6779 31.9788C27.7236 31.9938 27.7693 32.0088 27.815 31.9938C30.436 31.199 33.0723 29.9993 35.8152 28.0198C35.8457 28.0048 35.8609 27.9748 35.8609 27.9448C36.5314 21.1516 34.7485 15.2582 31.137 10.0245C31.1218 10.0095 31.1065 9.99455 31.076 9.99455ZM14.6946 24.3608C13.1251 24.3608 11.8146 22.9362 11.8146 21.1816C11.8146 19.4271 13.0946 18.0025 14.6946 18.0025C16.3099 18.0025 17.59 19.4421 17.5747 21.1816C17.5747 22.9362 16.2947 24.3608 14.6946 24.3608ZM25.3159 24.3608C23.7463 24.3608 22.4358 22.9362 22.4358 21.1816C22.4358 19.4271 23.7158 18.0025 25.3159 18.0025C26.9312 18.0025 28.2112 19.4421 28.196 21.1816C28.196 22.9362 26.9312 24.3608 25.3159 24.3608Z" fill="white"/>
</svg>
