<svg width="153" height="40" viewBox="0 0 153 40" fill="none" xmlns="http://www.w3.org/2000/svg">
<g clip-path="url(#clip0_1273_1100)">
<path d="M27.6402 25.1852L37.5725 0L31.928 4.02116L30.0952 8.25397H28.2624L24.745 10.6476L23.4857 8.25397H17.4286L0 40L26.3302 27.3016H11.9302L19.4899 12.4868L20.6455 14.6032L15.4497 25.1852H20.3259L25.1132 14.6032L28.2624 12.4868L22.764 25.1852H27.6402Z" fill="black"/>
<path d="M39.3841 8.25397L34.728 11.6402L29.5957 25.1852H44.2327L48.6772 8.25397H39.3841ZM40.6222 20.9524H35.9089L38.7894 12.4868H43.1745L40.6222 20.9524Z" fill="black"/>
<path d="M64.3238 11.6402L64.2264 12.4868L62.7534 25.1852H67.6296L68.6116 12.4868H72.9968L72.5058 25.1852H77.3841V12.4868V8.25397H68.0952L64.3238 11.6402Z" fill="black"/>
<path d="M99.8475 20.9524L97.6486 8.25397H93.4285L95.1258 20.9524L95.6909 25.1852H100.58H107.422L106.457 20.9524H99.8475Z" fill="black"/>
<path d="M83.7947 20.9524L83.4603 12.4868H92.2391L91.7397 8.25397H82.4508L79.073 11.6402V12.4868V20.9524V25.1852H83.9598H93.7376L93.2381 20.9524H83.7947Z" fill="black"/>
<path d="M117.071 8.25397H112.849L116.845 20.9524H112.123L108.627 8.25397H104.404L107.401 20.9524L107.602 21.7989L112.311 25.1852H118.178H123.065L121.566 20.9524L117.071 8.25397Z" fill="black"/>
<path d="M152.381 40L141.376 19.1132L137.534 16.7196L138.849 14.3259L135.649 8.25397H122.982L121.251 4.02116L115.708 0L118.76 8.25397L119.249 9.5746L122.377 18.0402L122.673 18.8423L125.02 25.1915H139.683L140.715 27.3079H126.286L152.381 40ZM124.713 12.4868H133.492L132.288 14.6032H125.579L124.713 12.4868ZM128.178 20.9524L127.312 18.836H134.269L137.621 20.9524H128.178Z" fill="black"/>
<path d="M53.7396 8.25397L49.5238 11.6402L46.1714 25.1852H60.8021L63.0285 8.25397H53.7396ZM56.6455 20.9524H51.9322L53.6994 12.4868H58.0867L56.6455 20.9524Z" fill="black"/>
</g>
<defs>
<clipPath id="clip0_1273_1100">
<rect width="152.381" height="40" fill="white"/>
</clipPath>
</defs>
</svg>
