<svg width="279" height="27" viewBox="0 0 279 27" fill="none" xmlns="http://www.w3.org/2000/svg">
<path opacity="0.8" d="M25.604 0.692H23.84C23.696 0.692 23.552 0.763999 23.48 0.907999L15.632 16.28L7.748 0.907999C7.676 0.763999 7.532 0.692 7.388 0.692H5.624C5.444 0.692 5.3 0.799998 5.264 0.979998L0.332 25.496C0.26 25.784 0.404 26 0.692 26H5.912C6.128 26 6.308 25.856 6.344 25.676L8.576 13.328L14.444 25.064C14.516 25.208 14.66 25.316 14.804 25.316H16.424C16.568 25.316 16.712 25.208 16.784 25.064L22.688 13.328L24.884 25.676C24.92 25.856 25.1 26 25.28 26H30.536C30.824 26 30.968 25.784 30.896 25.496L25.964 0.979998C25.928 0.799998 25.784 0.692 25.604 0.692ZM46.1355 0.368C38.4675 0.368 33.0315 5.552 33.0315 13.4C33.0315 21.248 38.4675 26.432 46.1355 26.432C53.8035 26.432 59.2395 21.248 59.2395 13.4C59.2395 5.552 53.8035 0.368 46.1355 0.368ZM46.1355 5.84C50.4195 5.84 53.0835 8.792 53.0835 13.4C53.0835 18.008 50.4195 20.96 46.1355 20.96C41.8155 20.96 39.1875 18.008 39.1875 13.4C39.1875 8.792 41.8155 5.84 46.1355 5.84ZM75.3504 0.368C67.6824 0.368 62.2464 5.552 62.2464 13.4C62.2464 21.248 67.6824 26.432 75.3504 26.432C83.0184 26.432 88.4544 21.248 88.4544 13.4C88.4544 5.552 83.0184 0.368 75.3504 0.368ZM75.3504 5.84C79.6344 5.84 82.2984 8.792 82.2984 13.4C82.2984 18.008 79.6344 20.96 75.3504 20.96C71.0304 20.96 68.4024 18.008 68.4024 13.4C68.4024 8.792 71.0304 5.84 75.3504 5.84ZM113.637 0.799998H108.561C108.309 0.799998 108.165 0.979998 108.165 1.196V15.128L94.8092 0.872C94.6652 0.692 94.4852 0.619998 94.2692 0.619998H92.7212C92.4692 0.619998 92.2892 0.799998 92.2892 1.016V25.604C92.2892 25.82 92.4692 26 92.7212 26H97.7972C98.0132 26 98.1932 25.82 98.1932 25.604V11.708L111.549 26C111.657 26.108 111.801 26.18 112.017 26.18H113.637C113.889 26.18 114.033 26 114.033 25.784V1.196C114.033 0.979998 113.889 0.799998 113.637 0.799998ZM132.694 7.352L135.826 3.644C135.97 3.464 135.97 3.248 135.754 3.104C133.054 0.907999 130.21 0.368 127.006 0.368C121.786 0.368 118.078 3.14 118.078 7.784C118.078 12.248 121.066 14.3 126.538 16.028C129.31 16.856 130.426 17.324 130.426 18.872C130.426 20.024 129.706 21.176 127.042 21.176C124.882 21.176 122.866 20.6 120.994 18.8C120.778 18.62 120.562 18.62 120.382 18.8L117.286 22.58C117.142 22.724 117.178 22.976 117.358 23.12C120.13 25.496 123.37 26.432 126.898 26.432C132.91 26.432 136.654 23.408 136.654 18.476C136.654 14.048 133.234 12.356 128.878 10.916C125.602 9.836 124.234 9.26 124.234 7.604C124.234 6.596 124.918 5.624 127.15 5.624C128.986 5.624 130.606 6.128 132.082 7.388C132.298 7.568 132.514 7.532 132.694 7.352ZM137.677 1.196V5.948C137.677 6.164 137.857 6.344 138.109 6.344H144.697V25.604C144.697 25.82 144.877 26 145.129 26H150.277C150.529 26 150.673 25.82 150.673 25.604V6.344H157.297C157.549 6.344 157.693 6.164 157.693 5.948V1.196C157.693 0.979998 157.549 0.799998 157.297 0.799998H138.109C137.857 0.799998 137.677 0.979998 137.677 1.196ZM169.534 0.619998H167.734C167.59 0.619998 167.446 0.727999 167.374 0.872L155.926 25.424C155.782 25.748 155.926 26 156.286 26H161.974C162.154 26 162.298 25.892 162.37 25.748L164.098 21.68H173.17L174.898 25.748C174.97 25.892 175.114 26 175.294 26H180.982C181.342 26 181.486 25.748 181.342 25.424L169.894 0.872C169.822 0.727999 169.678 0.619998 169.534 0.619998ZM166.006 16.784L168.67 10.34L171.262 16.784H166.006ZM184.68 1.196V25.604C184.68 25.82 184.86 26 185.112 26H190.26C190.512 26 190.656 25.82 190.656 25.604V14.3L199.476 25.712C199.62 25.928 199.8 26 200.016 26H206.676C207.18 26 207.288 25.712 207 25.352L196.632 12.608L206.676 1.484C207.036 1.088 206.928 0.799998 206.388 0.799998H200.196C199.98 0.799998 199.764 0.907999 199.656 1.052L190.656 11.636V1.196C190.656 0.979998 190.512 0.799998 190.26 0.799998H185.112C184.86 0.799998 184.68 0.979998 184.68 1.196ZM209.746 1.196V25.604C209.746 25.82 209.926 26 210.178 26H226.486C226.738 26 226.882 25.82 226.882 25.604V20.96C226.882 20.708 226.738 20.528 226.486 20.528H215.722V15.884H224.902C225.118 15.884 225.298 15.704 225.298 15.488V11.132C225.298 10.88 225.118 10.736 224.902 10.736H215.722V6.272H226.342C226.558 6.272 226.738 6.092 226.738 5.84V1.196C226.738 0.979998 226.558 0.799998 226.342 0.799998H210.178C209.926 0.799998 209.746 0.979998 209.746 1.196ZM234.287 19.196C232.199 19.196 230.687 20.636 230.687 22.796C230.687 24.956 232.199 26.396 234.287 26.396C236.375 26.396 237.887 24.956 237.887 22.796C237.887 20.636 236.375 19.196 234.287 19.196ZM247.564 0.799998H242.452C242.2 0.799998 242.02 0.979998 242.02 1.196V25.604C242.02 25.82 242.2 26 242.452 26H247.564C247.816 26 247.96 25.82 247.96 25.604V1.196C247.96 0.979998 247.816 0.799998 247.564 0.799998ZM264.948 0.368C257.28 0.368 251.844 5.552 251.844 13.4C251.844 21.248 257.28 26.432 264.948 26.432C272.616 26.432 278.052 21.248 278.052 13.4C278.052 5.552 272.616 0.368 264.948 0.368ZM264.948 5.84C269.232 5.84 271.896 8.792 271.896 13.4C271.896 18.008 269.232 20.96 264.948 20.96C260.628 20.96 258 18.008 258 13.4C258 8.792 260.628 5.84 264.948 5.84Z" fill="white"/>
</svg>
