<svg width="34" height="28" viewBox="0 0 34 28" fill="none" xmlns="http://www.w3.org/2000/svg">
<path d="M33.5628 3.72673C32.3446 4.26649 31.0359 4.63121 29.6602 4.79606C31.0637 3.95577 32.1403 2.6223 32.648 1.03503C31.335 1.81411 29.8805 2.38013 28.3327 2.68357C27.0926 1.3648 25.3273 0.539062 23.3724 0.539062C19.6202 0.539062 16.5769 3.58228 16.5769 7.33746C16.5771 7.85788 16.6358 8.37663 16.752 8.88392C11.1017 8.59938 6.09627 5.89314 2.74376 1.78201C2.16027 2.78864 1.82465 3.95577 1.82465 5.19872C1.82465 7.55623 3.02538 9.63811 4.84747 10.8563C3.7683 10.8219 2.71295 10.5303 1.76923 10.0058V10.0933C1.76923 13.3859 4.11076 16.1331 7.2211 16.7575C6.63746 16.915 6.03554 16.9944 5.43103 16.9938C5.00176 16.9942 4.5734 16.9541 4.15163 16.8742C5.01674 19.5731 7.52604 21.5397 10.5007 21.5922C8.17373 23.4158 5.24286 24.5027 2.05955 24.5027C1.51101 24.5027 0.969746 24.4706 0.437256 24.4078C3.44552 26.338 7.01687 27.4613 10.8537 27.4613C23.3564 27.4613 30.1913 17.1061 30.1913 8.12524C30.1913 7.8335 30.1839 7.53875 30.1708 7.24701C31.4984 6.28703 32.6509 5.09222 33.5598 3.73108L33.5628 3.72673Z" fill="white"/>
</svg>
