<svg width="12" height="8" viewBox="0 0 12 8" fill="none" xmlns="http://www.w3.org/2000/svg">
<path d="M10.9997 1.16994C10.8123 0.983691 10.5589 0.87915 10.2947 0.87915C10.0305 0.87915 9.77707 0.983691 9.58971 1.16994L5.9997 4.70991L2.4597 1.16994C2.27234 0.983691 2.01889 0.87915 1.7547 0.87915C1.49052 0.87915 1.23707 0.983691 1.0497 1.16994C0.955976 1.2629 0.881582 1.3735 0.830813 1.49536C0.780044 1.61722 0.753906 1.74792 0.753906 1.87993C0.753906 2.01194 0.780044 2.14265 0.830813 2.26451C0.881582 2.38636 0.955976 2.49696 1.0497 2.58993L5.2897 6.82989C5.38267 6.92361 5.49327 6.99801 5.61513 7.04877C5.73699 7.09954 5.86769 7.12568 5.9997 7.12568C6.13172 7.12568 6.26242 7.09954 6.38428 7.04877C6.50614 6.99801 6.61674 6.92361 6.7097 6.82989L10.9997 2.58993C11.0934 2.49696 11.1678 2.38636 11.2186 2.26451C11.2694 2.14265 11.2955 2.01194 11.2955 1.87993C11.2955 1.74792 11.2694 1.61722 11.2186 1.49536C11.1678 1.3735 11.0934 1.2629 10.9997 1.16994Z" fill="url(#paint0_linear_7594_1356)"/>
<defs>
<linearGradient id="paint0_linear_7594_1356" x1="0.999634" y1="1" x2="10.9996" y2="1" gradientUnits="userSpaceOnUse">
<stop stop-color="#F649B8"/>
<stop offset="1" stop-color="#9263F9"/>
</linearGradient>
</defs>
</svg>
