<svg width="24" height="24" viewBox="0 0 24 24" fill="none" xmlns="http://www.w3.org/2000/svg">
<path d="M19.9613 2.41052C19.8719 2.33966 19.7673 2.29044 19.6557 2.26669C19.5442 2.24295 19.4286 2.24533 19.3181 2.27364L7.31813 5.27364C7.15603 5.31416 7.0121 5.40765 6.90918 5.53927C6.80626 5.6709 6.75024 5.83312 6.75 6.00021V16.3221C6.12428 15.904 5.37678 15.707 4.62628 15.7625C3.87579 15.818 3.16535 16.1227 2.60788 16.6282C2.05041 17.1337 1.67788 17.811 1.54949 18.5525C1.4211 19.294 1.54421 20.0572 1.89927 20.7207C2.25433 21.3842 2.82096 21.91 3.50912 22.2146C4.19728 22.5191 4.96749 22.585 5.69735 22.4016C6.42721 22.2182 7.07485 21.7962 7.53736 21.2026C7.99986 20.6089 8.2507 19.8777 8.25 19.1252V10.3361L18.75 7.71114V13.3221C18.1243 12.904 17.3768 12.707 16.6263 12.7625C15.8758 12.818 15.1654 13.1227 14.6079 13.6282C14.0504 14.1337 13.6779 14.811 13.5495 15.5525C13.4211 16.294 13.5442 17.0572 13.8993 17.7207C14.2543 18.3842 14.821 18.91 15.5091 19.2146C16.1973 19.5191 16.9675 19.585 17.6973 19.4016C18.4272 19.2182 19.0749 18.7962 19.5374 18.2026C19.9999 17.6089 20.2507 16.8777 20.25 16.1252V3.00021C20.2497 2.88645 20.2236 2.77425 20.1736 2.67209C20.1236 2.56992 20.051 2.48048 19.9613 2.41052Z" fill="#245EF4"/>
</svg>
