<svg width="25" height="24" viewBox="0 0 25 24" fill="none" xmlns="http://www.w3.org/2000/svg">
<path d="M20.014 4.48595C18.0312 2.50314 14.8226 2.50314 12.8421 4.48595L10.571 6.75704L11.7664 7.95236L14.0375 5.68126C15.2984 4.42032 17.4265 4.28673 18.8187 5.68126C20.2132 7.07579 20.0796 9.20158 18.8187 10.4625L16.5476 12.7336L17.7453 13.9313L20.0164 11.6602C21.9945 9.67736 21.9945 6.46876 20.014 4.48595ZM10.9648 18.3188C9.70386 19.5797 7.57573 19.7133 6.18354 18.3188C4.78901 16.9242 4.92261 14.7985 6.18354 13.5375L8.45464 11.2664L7.25698 10.0688L4.98589 12.3399C3.00308 14.3227 3.00308 17.5313 4.98589 19.5117C6.9687 21.4922 10.1773 21.4945 12.1578 19.5117L14.4289 17.2406L13.2335 16.0453L10.9648 18.3188ZM6.60073 4.90782C6.56549 4.87293 6.5179 4.85336 6.46831 4.85336C6.41872 4.85336 6.37113 4.87293 6.33589 4.90782L5.40776 5.83595C5.37287 5.87119 5.35329 5.91878 5.35329 5.96837C5.35329 6.01796 5.37287 6.06555 5.40776 6.10079L18.4015 19.0945C18.4742 19.1672 18.5937 19.1672 18.6664 19.0945L19.5945 18.1664C19.6671 18.0938 19.6671 17.9742 19.5945 17.9016L6.60073 4.90782Z" fill="#245EF4"/>
</svg>
