<svg width="20" height="20" viewBox="0 0 20 20" fill="none" xmlns="http://www.w3.org/2000/svg">
<path d="M9.99999 18.3334C12.3012 18.3334 14.3845 17.4007 15.8925 15.8926C17.4006 14.3846 18.3333 12.3012 18.3333 10.0001C18.3333 7.69892 17.4006 5.61558 15.8925 4.10752C14.3845 2.59949 12.3012 1.66675 9.99999 1.66675C7.69882 1.66675 5.61549 2.59949 4.10743 4.10752C2.5994 5.61558 1.66666 7.69892 1.66666 10.0001C1.66666 12.3012 2.5994 14.3846 4.10743 15.8926C5.61549 17.4007 7.69882 18.3334 9.99999 18.3334Z" stroke="#71717A" stroke-width="2" stroke-linejoin="round"/>
<path d="M10 4.83325C10.4372 4.83325 10.7917 5.1877 10.7917 5.62492C10.7917 6.06214 10.4372 6.41658 10 6.41658C9.56279 6.41658 9.20834 6.06214 9.20834 5.62492C9.20834 5.1877 9.56279 4.83325 10 4.83325Z" fill="#71717A" stroke="#71717A" stroke-width="0.5"/>
<path d="M10.2083 14.1666V8.33325H9.79167H9.375" stroke="#71717A" stroke-width="2" stroke-linecap="round" stroke-linejoin="round"/>
<path d="M8.75 14.1667H11.6667" stroke="#71717A" stroke-width="2" stroke-linecap="round" stroke-linejoin="round"/>
</svg>
