<svg width="20" height="20" viewBox="0 0 20 20" fill="none" xmlns="http://www.w3.org/2000/svg">
<circle cx="10" cy="10" r="9" stroke="#99ABC9" stroke-width="2"/>
<path d="M10.9123 4C11.2865 4 11.5614 4.09917 11.7368 4.29752C11.9123 4.48485 12 4.7438 12 5.07438C12 5.39394 11.883 5.68044 11.6491 5.93388C11.4152 6.17631 11.0994 6.29752 10.7018 6.29752C10.3275 6.29752 10.0526 6.19835 9.87719 6C9.70175 5.80165 9.61404 5.55372 9.61404 5.2562C9.61404 4.9146 9.72515 4.62259 9.94737 4.38017C10.1813 4.12672 10.5029 4 10.9123 4ZM9.63158 16C9.10526 16 8.70175 15.8733 8.42105 15.6198C8.14035 15.3664 8 15.0303 8 14.6116C8 14.4573 8.01754 14.2975 8.05263 14.1322L9.38597 7.81818H11.3158L10.0526 13.9669C10.0409 14.022 10.0292 14.0716 10.0175 14.1157C10.0175 14.1488 10.0175 14.1873 10.0175 14.2314C10.0175 14.5069 10.117 14.6446 10.3158 14.6446C10.5146 14.6446 10.7076 14.6281 10.8947 14.595C11.0819 14.551 11.1871 14.5234 11.2105 14.5124V15.7025C11.0819 15.7576 10.9357 15.8072 10.7719 15.8512C10.6316 15.8953 10.462 15.9284 10.2632 15.9504C10.076 15.9835 9.8655 16 9.63158 16Z" fill="#99ABC9"/>
</svg>
