<svg width="240" height="240" viewBox="0 0 240 240" fill="none" xmlns="http://www.w3.org/2000/svg">
<mask id="mask0_1221_15106" style="mask-type:alpha" maskUnits="userSpaceOnUse" x="0" y="0" width="240" height="240">
<rect width="240" height="240" fill="#D9D9D9"/>
</mask>
<g mask="url(#mask0_1221_15106)">
<g filter="url(#filter0_d_1221_15106)">
<path d="M67.7154 71.6279H165.772C169.522 71.6279 172.737 74.6754 172.737 78.6192V140.644C172.737 144.408 169.701 147.635 165.772 147.635H67.7154C63.9645 147.635 60.7495 144.588 60.7495 140.644V78.6192C60.7495 74.8547 63.9645 71.6279 67.7154 71.6279Z" fill="#E3EAF4"/>
</g>
<path d="M212.605 132.432L176.992 151.851C175.84 152.474 174.211 152.078 173.741 150.807L155.905 116.054C155.306 114.908 155.73 113.266 157.005 112.771L203.23 88.2599C204.384 87.6375 206.013 88.0327 206.483 89.3039L219.41 114.509L212.605 132.432Z" fill="#F4F9FF"/>
<path d="M219.219 114.708L209.244 119.93C207.962 120.677 207.409 122.444 208 123.842L212.42 132.619" fill="#D0DBEC"/>
<path d="M194.581 109.984C195.078 110.242 195.575 110.5 196.071 110.758C196.568 111.016 197.065 111.273 197.555 111.784C198.045 112.295 198.412 112.678 198.902 113.189C199.392 113.7 199.753 114.337 200.113 114.973C200.595 115.737 200.819 116.751 200.922 117.638C201.023 118.525 201.001 119.284 200.85 120.168C200.579 120.925 200.305 121.682 199.909 122.311C199.384 123.065 198.616 123.564 197.975 123.937C197.335 124.311 196.572 124.557 195.686 124.675C195.053 124.795 194.297 124.788 193.671 124.655C193.045 124.523 192.418 124.39 191.922 124.132L190.431 123.358C190.057 123.228 189.56 122.971 189.185 122.841C188.811 122.711 188.307 122.706 188.048 122.956L185.631 123.819L184.319 121.148L186.758 119.527C187.146 119.151 187.65 119.156 188.153 119.161C188.657 119.166 189.161 119.171 189.658 119.428C190.155 119.686 190.652 119.944 191.026 120.074C191.523 120.332 192.02 120.59 192.645 120.722C193.143 120.98 193.647 120.985 194.273 121.117C194.777 121.122 195.41 121.002 196.051 120.628C196.691 120.255 197.339 119.628 197.359 118.869C197.496 118.491 197.381 118.11 197.394 117.604C197.28 117.223 197.162 116.842 196.926 116.334C196.687 115.825 196.32 115.442 195.961 114.806C195.715 114.55 195.348 114.167 194.974 114.037C194.728 113.782 194.354 113.652 194.231 113.524C194.11 113.396 193.856 113.394 193.741 113.013C193.497 112.758 193.51 112.252 193.77 112.001L194.581 109.984ZM177.597 122.73C177.978 122.607 178.237 122.356 178.612 122.486C178.993 122.363 179.368 122.493 179.62 122.496C180.369 122.756 180.858 123.267 181.096 123.776C181.211 124.156 181.327 124.537 181.32 124.79C181.313 125.043 181.299 125.549 181.292 125.802C181.149 126.433 180.501 127.06 179.99 127.308C179.609 127.431 179.227 127.554 178.976 127.551C178.724 127.549 178.22 127.544 177.968 127.542C177.219 127.282 176.729 126.771 176.491 126.262C176.376 125.881 176.26 125.501 176.267 125.248C176.152 124.867 176.289 124.488 176.296 124.235C176.432 123.857 176.691 123.606 176.698 123.353C176.957 123.103 177.338 122.98 177.597 122.73Z" fill="#D0DBEC"/>
<path d="M35.9529 114.616L35.2386 114.437C34.8814 114.437 34.7027 114.078 34.524 113.899C34.524 113.72 34.3455 113.361 34.1668 113.182C33.9883 112.824 33.9885 112.465 34.3457 112.286L34.7027 111.748C34.8814 111.39 34.8814 110.852 34.7027 110.493L33.4525 109.238C33.0953 108.88 32.5596 108.88 32.2024 109.238L31.6665 109.597C31.3092 109.776 30.952 109.776 30.7735 109.597C30.5948 109.418 30.2374 109.417 30.0589 109.238C29.7017 109.059 29.5233 108.88 29.5233 108.521L29.3444 107.804C29.3444 107.446 28.9872 107.087 28.4515 107.087H26.8442C26.3083 107.087 25.9511 107.446 25.9511 107.804L25.7724 108.521C25.7724 108.88 25.415 109.059 25.2364 109.238C25.0578 109.238 24.7008 109.418 24.5222 109.597C24.165 109.776 23.8077 109.776 23.6291 109.597L23.0932 109.238C22.736 108.88 22.2003 109.059 21.843 109.238L20.5929 110.493C20.2357 110.852 20.2357 111.39 20.5929 111.748L20.95 112.286C21.1286 112.644 21.1286 112.824 20.95 113.182C20.7714 113.361 20.7715 113.72 20.5929 113.899C20.4143 114.257 20.2354 114.437 19.8782 114.437L19.1639 114.616C18.8067 114.616 18.4492 114.974 18.4492 115.512V117.126C18.4492 117.664 18.8067 118.023 19.1639 118.023L19.8782 118.201C20.2354 118.201 20.4143 118.56 20.5929 118.739C20.5929 118.919 20.7714 119.277 20.95 119.456C21.1286 119.815 21.1286 120.173 20.95 120.352L20.5929 120.89C20.4143 121.248 20.4143 121.787 20.5929 122.145L21.843 123.4C22.2003 123.759 22.736 123.759 23.0932 123.4L23.6291 123.041C23.8077 122.862 24.165 122.862 24.5222 122.862C24.7008 123.041 25.0578 123.042 25.2364 123.221C25.5937 123.4 25.7724 123.579 25.7724 123.938L25.9511 124.655C25.9511 125.013 26.3083 125.372 26.8442 125.372H28.4515C28.9872 125.372 29.3444 125.013 29.3444 124.655L29.5233 123.938C29.5233 123.579 29.8802 123.4 30.0589 123.221C30.2374 123.221 30.5948 123.041 30.7735 122.862C31.1307 122.683 31.4879 122.683 31.6665 123.041L32.2024 123.4C32.5596 123.58 33.0953 123.58 33.4525 123.4L34.7027 122.145C35.0599 121.787 35.0599 121.248 34.7027 120.89L34.3457 120.352C34.167 119.994 34.1668 119.635 34.1668 119.456C34.3455 119.277 34.3455 118.919 34.524 118.739C34.7027 118.381 34.8814 118.201 35.2386 118.201L35.9529 118.023C36.3101 118.023 36.6677 117.664 36.6677 117.126V115.512C36.8462 114.974 36.4888 114.616 35.9529 114.616ZM27.7372 119.456C26.1297 119.456 24.7005 118.022 24.7005 116.408C24.7005 114.795 26.1297 113.362 27.7372 113.362C29.3446 113.362 30.7735 114.795 30.7735 116.408C30.7735 118.022 29.5233 119.456 27.7372 119.456Z" fill="#D0DBEC"/>
<g filter="url(#filter1_d_1221_15106)">
<path d="M170.675 91.9404H136.114C132.823 91.9404 129.532 93.1269 126.988 95.203L117.862 102.618C115.318 104.694 112.027 105.88 108.736 105.88H69.388C65.498 105.88 62.2065 108.994 62.2065 112.998C62.2065 113.294 62.2067 113.74 62.3563 114.036L69.5373 151.998C70.1358 155.557 73.128 158.226 76.7187 158.226H160.501C164.092 158.226 167.084 155.705 167.682 152.146L177.706 100.245C178.305 96.3893 175.761 92.6819 171.722 92.0888C171.423 91.9406 170.974 91.9404 170.675 91.9404Z" fill="white"/>
</g>
<g filter="url(#filter2_d_1221_15106)">
<path d="M180.269 85.0376H139.01C135.081 85.0376 131.151 86.4721 128.115 88.9818L117.22 97.9449C114.183 100.455 110.254 101.889 106.325 101.889H59.3508C54.7069 101.889 50.7773 105.653 50.7773 110.493C50.7773 110.852 50.7775 111.39 50.9562 111.748L59.5291 157.639C60.2435 161.941 63.8157 165.168 68.1023 165.168H168.123C172.41 165.168 175.982 162.12 176.697 157.818L188.663 95.0766C189.378 90.4158 186.342 85.9341 181.519 85.2171C181.162 85.0378 180.626 85.0376 180.269 85.0376Z" fill="white"/>
</g>
<g filter="url(#filter3_d_1221_15106)">
<path d="M198.333 161.422C197.797 163.752 197.084 165.903 196.19 168.054C196.012 168.592 195.832 168.951 195.476 169.489C192.439 175.404 187.617 180.244 181.723 183.113C181.008 183.47 180.294 183.829 179.758 184.008C174.043 186.339 167.613 187.236 161.183 185.801C144.215 182.216 133.32 165.545 136.892 148.515C140.464 131.485 157.075 120.55 174.043 124.135C180.116 125.39 185.474 128.438 189.939 132.74C197.441 140.089 200.656 151.025 198.333 161.422Z" fill="url(#paint0_linear_1221_15106)"/>
</g>
<path d="M196.164 168.036C195.986 168.574 195.808 168.932 195.63 169.47C192.594 175.386 187.77 180.226 181.876 183.095C181.162 183.452 180.448 183.811 179.912 183.99L157.943 161.942L163.301 162.12L169.017 162.299L173.125 159.431C173.125 159.431 176.34 153.874 176.161 153.516C175.982 153.157 172.41 147.601 172.41 147.601L176.34 148.317L196.164 168.036Z" fill="url(#paint1_linear_1221_15106)"/>
<path d="M180.626 164.988L175.983 160.327C179.555 154.949 178.126 147.779 172.768 144.194C167.409 140.608 160.265 142.043 156.693 147.421C153.121 152.799 154.55 159.969 159.908 163.555C163.837 166.064 168.838 166.064 172.589 163.555L177.233 168.216C178.126 169.112 179.555 169.112 180.448 168.216C181.341 167.319 181.519 165.885 180.626 164.988ZM161.336 158.894C158.657 156.205 158.657 151.723 161.336 149.034C164.016 146.345 168.481 146.345 171.16 149.034C173.839 151.723 173.839 156.205 171.16 158.894C168.481 161.583 164.016 161.583 161.336 158.894Z" fill="url(#paint2_linear_1221_15106)"/>
</g>
<defs>
<filter id="filter0_d_1221_15106" x="38.7495" y="60.6279" width="155.988" height="120.007" filterUnits="userSpaceOnUse" color-interpolation-filters="sRGB">
<feFlood flood-opacity="0" result="BackgroundImageFix"/>
<feColorMatrix in="SourceAlpha" type="matrix" values="0 0 0 0 0 0 0 0 0 0 0 0 0 0 0 0 0 0 127 0" result="hardAlpha"/>
<feOffset dy="11"/>
<feGaussianBlur stdDeviation="11"/>
<feColorMatrix type="matrix" values="0 0 0 0 0.397708 0 0 0 0 0.47749 0 0 0 0 0.575 0 0 0 0.18 0"/>
<feBlend mode="normal" in2="BackgroundImageFix" result="effect1_dropShadow_1221_15106"/>
<feBlend mode="normal" in="SourceGraphic" in2="effect1_dropShadow_1221_15106" result="shape"/>
</filter>
<filter id="filter1_d_1221_15106" x="57.2065" y="81.9404" width="125.587" height="76.2856" filterUnits="userSpaceOnUse" color-interpolation-filters="sRGB">
<feFlood flood-opacity="0" result="BackgroundImageFix"/>
<feColorMatrix in="SourceAlpha" type="matrix" values="0 0 0 0 0 0 0 0 0 0 0 0 0 0 0 0 0 0 127 0" result="hardAlpha"/>
<feOffset dy="-5"/>
<feGaussianBlur stdDeviation="2.5"/>
<feColorMatrix type="matrix" values="0 0 0 0 0.397708 0 0 0 0 0.47749 0 0 0 0 0.575 0 0 0 0.18 0"/>
<feBlend mode="normal" in2="BackgroundImageFix" result="effect1_dropShadow_1221_15106"/>
<feBlend mode="normal" in="SourceGraphic" in2="effect1_dropShadow_1221_15106" result="shape"/>
</filter>
<filter id="filter2_d_1221_15106" x="28.7773" y="74.0376" width="181.99" height="124.13" filterUnits="userSpaceOnUse" color-interpolation-filters="sRGB">
<feFlood flood-opacity="0" result="BackgroundImageFix"/>
<feColorMatrix in="SourceAlpha" type="matrix" values="0 0 0 0 0 0 0 0 0 0 0 0 0 0 0 0 0 0 127 0" result="hardAlpha"/>
<feOffset dy="11"/>
<feGaussianBlur stdDeviation="11"/>
<feColorMatrix type="matrix" values="0 0 0 0 0.600469 0 0 0 0 0.670147 0 0 0 0 0.7875 0 0 0 0.18 0"/>
<feBlend mode="normal" in2="BackgroundImageFix" result="effect1_dropShadow_1221_15106"/>
<feBlend mode="normal" in="SourceGraphic" in2="effect1_dropShadow_1221_15106" result="shape"/>
</filter>
<filter id="filter3_d_1221_15106" x="128.214" y="120.455" width="78.8619" height="79.0375" filterUnits="userSpaceOnUse" color-interpolation-filters="sRGB">
<feFlood flood-opacity="0" result="BackgroundImageFix"/>
<feColorMatrix in="SourceAlpha" type="matrix" values="0 0 0 0 0 0 0 0 0 0 0 0 0 0 0 0 0 0 127 0" result="hardAlpha"/>
<feOffset dy="5"/>
<feGaussianBlur stdDeviation="4"/>
<feColorMatrix type="matrix" values="0 0 0 0 0.600469 0 0 0 0 0.670147 0 0 0 0 0.7875 0 0 0 0.43 0"/>
<feBlend mode="normal" in2="BackgroundImageFix" result="effect1_dropShadow_1221_15106"/>
<feBlend mode="normal" in="SourceGraphic" in2="effect1_dropShadow_1221_15106" result="shape"/>
</filter>
<linearGradient id="paint0_linear_1221_15106" x1="137.376" y1="155.231" x2="199.318" y2="155.231" gradientUnits="userSpaceOnUse">
<stop stop-color="#82B3FF"/>
<stop offset="1" stop-color="#3E73FB"/>
</linearGradient>
<linearGradient id="paint1_linear_1221_15106" x1="172.34" y1="160.326" x2="183.313" y2="171.259" gradientUnits="userSpaceOnUse">
<stop stop-color="#245EF4"/>
<stop offset="1" stop-color="#245EF4" stop-opacity="0"/>
</linearGradient>
<linearGradient id="paint2_linear_1221_15106" x1="177.809" y1="165.477" x2="162.294" y2="150.018" gradientUnits="userSpaceOnUse">
<stop offset="0.0113208" stop-color="#DCE8FF"/>
<stop offset="1" stop-color="white"/>
</linearGradient>
</defs>
</svg>
