<svg width="20" height="20" viewBox="0 0 20 20" fill="none" xmlns="http://www.w3.org/2000/svg">
<path d="M10 8.125V2.8125C10 2.3981 9.83539 2.00067 9.54237 1.70765C9.24934 1.41462 8.85191 1.25 8.43751 1.25C8.02311 1.25 7.62568 1.41462 7.33266 1.70765C7.03963 2.00067 6.87501 2.3981 6.87501 2.8125V12.2864L5.16192 9.31926C5.05942 9.14138 4.92287 8.98544 4.76007 8.86036C4.59728 8.73528 4.41142 8.64351 4.21314 8.59029C4.01486 8.53707 3.80803 8.52345 3.60448 8.5502C3.40093 8.57696 3.20465 8.64356 3.02686 8.74621C2.84906 8.84886 2.69324 8.98555 2.56829 9.14845C2.44335 9.31135 2.35173 9.49728 2.29868 9.6956C2.24562 9.89393 2.23218 10.1008 2.2591 10.3043C2.28603 10.5078 2.3528 10.704 2.45559 10.8818C5.00001 16.25 6.54823 18.125 10 18.125C10.8208 18.125 11.6335 17.9633 12.3918 17.6492C13.1501 17.3352 13.8391 16.8748 14.4194 16.2944C14.9998 15.7141 15.4602 15.0251 15.7743 14.2668C16.0884 13.5085 16.25 12.6958 16.25 11.875V8.75C16.25 8.3356 16.0854 7.93817 15.7924 7.64515C15.4993 7.35212 15.1019 7.1875 14.6875 7.1875C14.2731 7.1875 13.8757 7.35212 13.5827 7.64515C13.2896 7.93817 13.125 8.3356 13.125 8.75" stroke="#99ABC9" stroke-width="2" stroke-linecap="round" stroke-linejoin="round"/>
<path d="M13.125 8.75V7.8125C13.125 7.3981 12.9604 7.00067 12.6674 6.70765C12.3743 6.41462 11.9769 6.25 11.5625 6.25C11.1481 6.25 10.7507 6.41462 10.4576 6.70765C10.1646 7.00067 10 7.3981 10 7.8125V8.125" stroke="#99ABC9" stroke-width="2" stroke-linecap="round" stroke-linejoin="round"/>
</svg>
