<svg width="72" height="72" viewBox="0 0 72 72" fill="none" xmlns="http://www.w3.org/2000/svg">
<path d="M54.3717 66.9616C71.4693 56.8138 77.1032 34.7271 66.9554 17.6295C56.8077 0.531955 34.721 -5.10198 17.6234 5.04578C0.525846 15.1935 -5.10809 37.2802 5.03967 54.3778C15.1874 71.4754 37.2741 77.1093 54.3717 66.9616Z" fill="#2ACB87"/>
<path d="M0.773363 36.7734C0.773563 29.6996 2.85776 22.7826 6.76566 16.8862C10.6736 10.9899 16.232 6.37552 22.7468 3.61938C29.2615 0.863226 36.4439 0.0874579 43.3969 1.38895C50.35 2.69045 56.7655 6.01152 61.8423 10.9374C58.5201 7.50471 54.5478 4.76754 50.1571 2.88542C45.7663 1.00331 41.0449 0.0138937 36.268 -0.0251638C31.491 -0.0642214 26.754 0.84786 22.3331 2.65793C17.9122 4.468 13.8957 7.13985 10.5178 10.5178C7.13985 13.8957 4.468 17.9122 2.65793 22.3331C0.84786 26.754 -0.0642214 31.491 -0.0251638 36.268C0.0138937 41.0449 1.00331 45.7663 2.88542 50.1571C4.76754 54.5478 7.50471 58.5201 10.9374 61.8423C4.41059 55.1307 0.763418 46.1352 0.773363 36.7734Z" fill="#27B77A"/>
<path d="M30 51.5L45.9708 70.5928C53.4738 68.4291 60.07 63.8849 64.765 57.6452C69.46 51.4056 71.9993 43.8087 72 36C72 35.6859 72 35.3961 72 35.0518L53.5 21L30 51.5Z" fill="url(#paint0_linear_532_14887)"/>
<path d="M31.1368 52C30.5519 52.0004 29.9745 51.8664 29.4479 51.608C28.9213 51.3495 28.4592 50.9734 28.0964 50.5078L17.8606 37.407C17.539 37.0027 17.2994 36.5377 17.1557 36.039C17.0121 35.5403 16.9672 35.0176 17.0236 34.5012C17.0801 33.9848 17.2368 33.4848 17.4846 33.0301C17.7325 32.5755 18.0666 32.1751 18.4678 31.8522C18.8689 31.5293 19.3291 31.2902 19.8218 31.1487C20.3145 31.0072 20.8299 30.9661 21.3383 31.0279C21.8467 31.0896 22.338 31.2529 22.7839 31.5083C23.2298 31.7637 23.6214 32.1062 23.9362 32.5161L34.172 45.6169C34.6205 46.197 34.8996 46.8932 34.9776 47.6263C35.0555 48.3593 34.9293 49.0999 34.6131 49.7638C34.2969 50.4277 33.8035 50.9882 33.1889 51.3816C32.5744 51.7751 31.8634 51.9856 31.1368 51.9894V52Z" fill="white"/>
<path d="M31.907 52C31.1722 51.9963 30.4531 51.7866 29.8316 51.3948C29.2101 51.0029 28.7111 50.4447 28.3913 49.7836C28.0715 49.1225 27.9438 48.385 28.0227 47.6549C28.1015 46.9248 28.3838 46.2315 28.8374 45.6538L48.0014 21.4854C48.6478 20.6705 49.5917 20.1455 50.6254 20.026C51.6591 19.9065 52.698 20.2022 53.5135 20.8481C54.329 21.494 54.8544 22.4372 54.974 23.4701C55.0936 24.503 54.7976 25.5412 54.1513 26.3561L34.982 50.5139C34.6145 50.977 34.1471 51.3512 33.6147 51.6085C33.0822 51.8658 32.4985 51.9997 31.907 52Z" fill="white"/>
<defs>
<linearGradient id="paint0_linear_532_14887" x1="39.6477" y1="33.6507" x2="64.1732" y2="58.1761" gradientUnits="userSpaceOnUse">
<stop stop-color="#26AB73"/>
<stop offset="1" stop-color="#2ACB87"/>
</linearGradient>
</defs>
</svg>
